<svg xmlns="http://www.w3.org/2000/svg" width="160" height="32" fill="none">
  <path fill="url(#a)" stroke="url(#b)" d="M16 4c4.35 0 8.26 1 11.06 2.61 2.82 1.62 4.42 3.76 4.42 6 0 2.25-1.6 4.39-4.42 6-2.8 1.6-6.71 2.62-11.06 2.62-4.35 0-8.26-1.01-11.06-2.62-2.82-1.61-4.42-3.75-4.42-6 0-2.24 1.6-4.38 4.42-6C7.74 5.01 11.65 4 16 4Z"/>
  <path fill="#DAF727" fill-rule="evenodd" d="M0 15.66v3a6.1 6.1 0 0 0 1.22 3.57 11 11 0 0 0 3.47 3.03c1.48.87 3.25 1.56 5.19 2.03 1.94.47 4.02.71 6.12.71 2.1 0 4.18-.24 6.12-.71 1.94-.47 3.7-1.16 5.2-2.03a11 11 0 0 0 3.46-3.03A6.16 6.16 0 0 0 32 18.65v-2.99c-.17 5.08-7.27 8.76-16 8.76S.17 20.74 0 15.66Z" clip-rule="evenodd"/>
  <g filter="url(#c)" opacity=".8">
    <path fill="#5235E8" fill-opacity=".64" d="m14.89 17.14.42.92c.05.1.17.16.28.14l.77-.15a.1.1 0 0 0 .1-.08.16.16 0 0 0 0-.14l-.42-.9.39-.08.42.91c.04.1.17.17.27.15l.77-.15c.05-.01.1-.04.12-.08a.16.16 0 0 0 0-.14l-.43-.91.06-.01c1.54-.3 2.28-1.26 1.68-2.56a2.48 2.48 0 0 0-2.5-1.45l-.04-.07c.67-.32.97-.96.56-1.84-.52-1.12-1.72-1.63-3.07-1.37l-.07.02-.42-.91a.26.26 0 0 0-.12-.12.25.25 0 0 0-.16-.03l-.77.15a.15.15 0 0 0-.11.08.16.16 0 0 0 0 .14l.43.9-.44.1-.43-.92a.26.26 0 0 0-.11-.12.25.25 0 0 0-.16-.02l-.72.13a.15.15 0 0 0-.1.08.16.16 0 0 0 0 .14l.42.91-1.54.3a.15.15 0 0 0-.1.08.16.16 0 0 0 0 .14l.33.72c.05.1.17.17.27.15l.58-.12c.16-.02.33 0 .48.09.16.08.28.2.35.35l1.86 4.01c.07.14.07.3.01.42a.45.45 0 0 1-.33.24l-.57.11a.15.15 0 0 0-.12.08.16.16 0 0 0 0 .14l.35.73c.04.1.17.17.27.15l1.54-.3Zm-1.78-6.4 1.32-.26c.7-.13 1.28.15 1.55.75.3.63.02 1.07-.98 1.26l-.99.2-.9-1.96Zm1.37 2.95 1.41-.28c.88-.16 1.55.17 1.87.86.32.69 0 1.14-1.17 1.37l-1.1.21-1.01-2.16Z"/>
  </g>
  <path fill="#fff" stroke="#8D79F1" stroke-width=".25" d="m11.38 10.25.58-.11a.6.6 0 0 1 .41.07c.13.07.24.18.3.3l1.86 4.01c.05.12.06.25 0 .36a.39.39 0 0 1-.28.2l-.57.12a.22.22 0 0 0-.16.11.23.23 0 0 0 0 .2l.34.73c.07.15.25.24.4.21l1.45-.28.38.83c.07.14.25.23.4.2l.77-.14a.22.22 0 0 0 .16-.12.23.23 0 0 0 0-.2l-.39-.83.22-.04.38.83c.07.15.25.24.4.21l.77-.15a.22.22 0 0 0 .16-.11.23.23 0 0 0 0-.2l-.39-.83c.77-.15 1.35-.47 1.67-.93.31-.46.35-1.05.04-1.72a2.61 2.61 0 0 0-2.38-1.53c.25-.16.43-.38.52-.65.12-.32.09-.72-.13-1.18a2.5 2.5 0 0 0-1.28-1.26 3.22 3.22 0 0 0-1.9-.18l-.38-.83a.38.38 0 0 0-.16-.17.36.36 0 0 0-.24-.04l-.77.15a.22.22 0 0 0-.16.12.23.23 0 0 0 0 .2l.4.83-.28.05-.38-.83a.38.38 0 0 0-.17-.17.36.36 0 0 0-.23-.04l-.72.13a.22.22 0 0 0-.16.12.23.23 0 0 0 0 .2l.4.83-1.45.29.03.08L10.8 9a.22.22 0 0 0-.16.11.23.23 0 0 0 .01.2l.33.72c.07.15.25.24.4.21Zm3.55 1.26-.83-1.79 1.24-.23c.33-.07.63-.03.86.09.24.11.44.3.56.59.14.3.14.53 0 .72-.14.2-.44.35-.93.45l-.9.17Zm.54 1.16 1.33-.25c.42-.08.79-.04 1.08.1.28.13.51.36.66.69.15.32.15.58-.01.78-.17.22-.53.38-1.11.5l-1.02.19-.93-2Z"/>
  <path fill="#0E0637" d="M49.68 26c1.39 0 2.63-.23 3.72-.7a8.7 8.7 0 0 0 2.8-1.85 7.04 7.04 0 0 0 1.65-2.55l-3.18-1.48a5.13 5.13 0 0 1-5 3.35 5.93 5.93 0 0 1-3.2-.85 5.94 5.94 0 0 1-2.15-2.37 7.76 7.76 0 0 1-.78-3.56c0-1.36.26-2.53.78-3.54a5.72 5.72 0 0 1 2.16-2.37 5.93 5.93 0 0 1 3.2-.86 5.28 5.28 0 0 1 5 3.36l3.17-1.48a6.8 6.8 0 0 0-1.64-2.53A8.48 8.48 0 0 0 53.4 6.7a9.36 9.36 0 0 0-3.72-.7 9.72 9.72 0 0 0-6.92 2.83 9.4 9.4 0 0 0-2.03 3.18 10.61 10.61 0 0 0-.73 3.98c0 1.44.24 2.77.73 4a9.75 9.75 0 0 0 2.03 3.18A9.23 9.23 0 0 0 49.68 26Zm16.82 0a7.42 7.42 0 0 0 6.45-3.56 7.28 7.28 0 0 0 1.01-3.83 7.21 7.21 0 0 0-3.7-6.42 7.5 7.5 0 0 0-3.76-.96 7.41 7.41 0 0 0-6.5 3.59 7.3 7.3 0 0 0-1 3.8c0 1.42.33 2.68 1 3.8A7.41 7.41 0 0 0 66.5 26Zm0-3.12c-.77 0-1.45-.18-2.06-.55a3.93 3.93 0 0 1-1.4-1.5 4.9 4.9 0 0 1-.5-2.22c0-.81.17-1.54.5-2.18a3.93 3.93 0 0 1 3.46-2.08 3.74 3.74 0 0 1 3.38 2.08c.34.64.52 1.37.52 2.18 0 .82-.18 1.56-.52 2.21a3.74 3.74 0 0 1-3.38 2.06Zm9.44-12.93h3.41V6.31h-3.4v3.64Zm0 15.74h3.41V11.54h-3.4v14.15Zm5.95 0h3.41v-8.3c0-.92.26-1.65.78-2.2a2.77 2.77 0 0 1 2.08-.84c.85 0 1.54.28 2.06.83.53.54.8 1.28.8 2.21v8.3h3.41v-9.1a5.6 5.6 0 0 0-.67-2.79 4.76 4.76 0 0 0-1.9-1.9 5.5 5.5 0 0 0-2.76-.67c-.89 0-1.68.17-2.4.52-.69.34-1.23.86-1.6 1.53v-1.74h-3.2v14.15Zm22.55.31a7 7 0 0 0 3.66-.96 7.2 7.2 0 0 0 2.55-2.66c.63-1.12.94-2.38.94-3.77a7.5 7.5 0 0 0-.94-3.74 6.95 6.95 0 0 0-6.19-3.64c-1.84 0-3.28.58-4.34 1.74V6H96.7v19.69h3.2V24.1c.52.6 1.17 1.08 1.95 1.4.8.34 1.66.5 2.58.5Zm-.4-3.12c-.74 0-1.42-.18-2.02-.55a3.93 3.93 0 0 1-1.4-1.5 4.78 4.78 0 0 1-.5-2.22c0-.83.16-1.57.5-2.2a3.8 3.8 0 0 1 1.4-1.52c.6-.36 1.28-.54 2.03-.54a3.9 3.9 0 0 1 3.48 2.07c.35.65.52 1.38.52 2.2 0 .8-.17 1.55-.52 2.2a3.87 3.87 0 0 1-3.48 2.06ZM117.89 26a5.7 5.7 0 0 0 4.42-1.82v1.5h3.23v-9.4a4.66 4.66 0 0 0-2.84-4.4 6.72 6.72 0 0 0-3.04-.65c-1.43 0-2.7.34-3.8 1.01a5.26 5.26 0 0 0-2.3 2.68l2.8 1.35a3.35 3.35 0 0 1 3.17-2.13c.78 0 1.4.2 1.87.62.48.4.73.9.73 1.51v.47l-4.22.68c-1.66.27-2.9.8-3.7 1.58a3.96 3.96 0 0 0-1.19 2.94c0 1.25.44 2.24 1.33 2.97a5.4 5.4 0 0 0 3.54 1.09Zm-1.33-4.19c0-.99.67-1.61 2-1.87l3.57-.6v.57a3.47 3.47 0 0 1-3.62 3.48c-.57 0-1.04-.13-1.4-.4-.37-.3-.55-.7-.55-1.18Zm11.52 3.88h3.4v-8.3c0-.92.27-1.65.79-2.2a2.77 2.77 0 0 1 2.08-.84c.85 0 1.53.28 2.06.83.53.54.8 1.28.8 2.21v8.3h3.41v-9.1a5.6 5.6 0 0 0-.68-2.79 4.76 4.76 0 0 0-1.9-1.9 5.5 5.5 0 0 0-2.75-.67 5.4 5.4 0 0 0-2.4.52c-.69.34-1.23.86-1.61 1.53v-1.74h-3.2v14.15Zm14.82 0h3.4v-4.32l1.83-1.98 3.98 6.3h3.9l-5.33-8.45 5.23-5.7h-4.25l-5.35 5.62V6h-3.41v19.69Z"/>
  <defs>
    <linearGradient id="a" x1="32.47" x2="-.36" y1="4.65" y2="16.26" gradientUnits="userSpaceOnUse">
      <stop stop-color="#5235E8"/>
      <stop offset="1" stop-color="#816CEF"/>
    </linearGradient>
    <linearGradient id="b" x1="7.16" x2="27.55" y1="3.46" y2="18.09" gradientUnits="userSpaceOnUse">
      <stop stop-color="#B0A3F5"/>
      <stop offset="1" stop-color="#917FF1"/>
    </linearGradient>
    <filter id="c" width="17.68" height="17.92" x="5.85" y="4.29" color-interpolation-filters="sRGB" filterUnits="userSpaceOnUse">
      <feFlood flood-opacity="0" result="BackgroundImageFix"/>
      <feBlend in="SourceGraphic" in2="BackgroundImageFix" result="shape"/>
      <feGaussianBlur result="effect1_foregroundBlur_870_7792" stdDeviation="2"/>
    </filter>
  </defs>
</svg>
