<svg xmlns="http://www.w3.org/2000/svg" width="22" height="16" fill="none"><path stroke="#0E0637" stroke-linecap="round" stroke-linejoin="round" stroke-width="1.5" d="M1.42 8.713c-.136-.215-.204-.323-.242-.49a1.173 1.173 0 0 1 0-.446c.038-.167.106-.275.242-.49C2.546 5.505 5.895 1 11 1s8.455 4.505 9.58 6.287c.137.215.205.323.243.49.029.125.029.321 0 .446-.038.167-.106.275-.242.49C19.455 10.495 16.105 15 11 15c-5.106 0-8.455-4.505-9.58-6.287Z"/><path stroke="#0E0637" stroke-linecap="round" stroke-linejoin="round" stroke-width="1.5" d="M11 11a3 3 0 1 0 0-6 3 3 0 0 0 0 6Z"/></svg>