<svg xmlns="http://www.w3.org/2000/svg" width="10" height="14" fill="none"><path fill="#131316" d="M.883 3.679a.355.355 0 0 0 .361.37h1.238c.207 0 .372-.169.399-.375.135-.983.81-1.7 2.013-1.7 1.029 0 1.97.514 1.97 1.751 0 .953-.56 1.391-1.447 2.057-1.01.734-1.809 1.59-1.752 2.98l.005.326a.375.375 0 0 0 .375.369H5.26a.375.375 0 0 0 .375-.375v-.158c0-1.076.41-1.39 1.515-2.228C8.065 6 9.017 5.23 9.017 3.611 9.017 1.345 7.103.25 5.007.25c-1.9 0-3.982.885-4.124 3.429Zm2.335 8.644c0 .8.638 1.391 1.515 1.391.914 0 1.542-.591 1.542-1.39 0-.829-.63-1.41-1.543-1.41-.876 0-1.514.582-1.514 1.41Z"/></svg>