<svg xmlns="http://www.w3.org/2000/svg" width="20" height="20" fill="none"><mask id="a" width="32" height="24" x="-10" y="-2" maskUnits="userSpaceOnUse" style="mask-type:luminance"><path fill="#fff" d="M-10-2h32v24h-32z"/></mask><g mask="url(#a)"><path fill="#F7FCFF" fill-rule="evenodd" d="M-7 0h26.667v20H-7V0Z" clip-rule="evenodd"/><path fill="#E31D1C" fill-rule="evenodd" d="M-7 12.222v1.667h26.667v-1.667H-7ZM-7 15.278v1.667h26.667v-1.667H-7ZM-7 6.111v1.667h26.667V6.11H-7ZM-7 18.333V20h26.667v-1.667H-7ZM-7 9.167v1.666h26.667V9.167H-7ZM-7 0v1.667h26.667V0H-7ZM-7 3.056v1.666h26.667V3.056H-7Z" clip-rule="evenodd"/><path fill="#2E42A5" d="M-7 0H9.667v10.833H-7z"/><path fill="#F7FCFF" fill-rule="evenodd" d="m-5.565 2.449-.605.424.204-.755-.537-.478h.702l.235-.616.276.616h.598l-.47.478.182.755-.585-.424Zm3.333 0-.605.424.205-.755-.538-.478h.702l.236-.616.275.616h.599l-.47.478.182.755-.586-.424Zm2.729.424.605-.424.585.424-.182-.755.47-.478h-.598L1.1 1.024l-.236.616H.164l.537.478-.204.755Zm3.938-.424-.605.424.204-.755-.537-.478H4.2l.235-.616.276.616h.598l-.47.478.182.755-.585-.424ZM-6.17 6.206l.605-.424.585.424-.182-.754.47-.479h-.598l-.276-.615-.235.615h-.702l.537.479-.204.754Zm3.938-.424-.605.424.205-.754-.538-.479h.702l.236-.615.275.615h.599l-.47.479.182.754-.586-.424Zm2.729.424.605-.424.585.424-.182-.754.47-.479h-.598L1.1 4.358l-.236.615H.164l.537.479-.204.754Zm3.938-.424-.605.424.204-.754-.537-.479H4.2l.235-.615.276.615h.598l-.47.479.182.754-.585-.424ZM-6.17 9.54l.605-.424.585.424-.182-.755.47-.478h-.598l-.276-.616-.235.616h-.702l.537.478-.204.755Zm3.938-.424-.605.424.205-.755-.538-.478h.702l.236-.616.275.616h.599l-.47.478.182.755-.586-.424Zm2.729.424.605-.424.585.424-.182-.755.47-.478h-.598L1.1 7.69l-.236.616H.164l.537.478-.204.755Zm3.938-.424-.605.424.204-.755-.537-.478H4.2l.235-.616.276.616h.598l-.47.478.182.755-.585-.424Zm2.728-6.243.605-.424.586.424-.182-.755.47-.478h-.599l-.275-.616-.236.616H6.83l.538.478-.205.755Zm.605 2.91-.605.423.205-.754-.538-.479h.702l.236-.615.275.615h.599l-.47.479.182.754-.586-.424ZM7.163 9.54l.605-.424.586.424-.182-.755.47-.478h-.599l-.275-.616-.236.616H6.83l.538.478-.205.755ZM-3.898 4.116l-.605.424.204-.755-.537-.478h.701l.236-.616.276.616h.598l-.47.478.182.755-.585-.424Zm2.728.424.605-.424.585.424-.182-.755.47-.478H-.29l-.276-.616-.235.616h-.702l.537.478-.204.755Zm3.938-.424-.605.424.205-.755-.538-.478h.702l.236-.616.275.616h.599l-.47.478.182.755-.586-.424Zm-7.271 3.757.605-.424.585.424-.182-.755.47-.478h-.598l-.276-.616-.236.616h-.701l.537.478-.204.755Zm3.938-.424-.605.424.204-.755-.537-.478H-.8l.235-.616.276.616h.598l-.47.478.182.755-.585-.424Zm2.728.424.605-.424.586.424-.182-.755.47-.478h-.599l-.276-.616-.235.616H1.83l.538.478-.205.755Zm3.939-3.757-.605.424.204-.755-.537-.478h.701l.236-.616.276.616h.598l-.47.478.182.755-.585-.424Zm-.605 3.757.605-.424.585.424-.182-.755.47-.478h-.598L6.1 6.024l-.236.616h-.701l.537.478-.204.755Z" clip-rule="evenodd"/></g></svg>