<svg width="20" height="18" viewBox="0 0 20 18" fill="none" xmlns="http://www.w3.org/2000/svg">
<g clip-path="url(#clip0_240_6520)">
<path d="M10 7V9M10 13V13.01" stroke="#131316" stroke-width="1.5" stroke-linecap="round" stroke-linejoin="round"/>
<path d="M3.00019 17H17.0002C17.3265 16.9977 17.6473 16.9156 17.9346 16.7609C18.2219 16.6061 18.4669 16.3835 18.6484 16.1123C18.8299 15.841 18.9422 15.5296 18.9756 15.205C19.0091 14.8804 18.9626 14.5525 18.8402 14.25L11.7402 2.00002C11.5672 1.68741 11.3137 1.42685 11.0059 1.2454C10.6982 1.06396 10.3474 0.968262 9.99019 0.968262C9.63293 0.968262 9.28219 1.06396 8.97444 1.2454C8.66668 1.42685 8.41315 1.68741 8.24019 2.00002L1.14019 14.25C1.02013 14.5456 0.972523 14.8656 1.00134 15.1833C1.03016 15.501 1.13456 15.8073 1.30584 16.0764C1.47712 16.3456 1.7103 16.5698 1.98592 16.7305C2.26153 16.8912 2.57158 16.9836 2.89019 17" stroke="#131316" stroke-width="1.5" stroke-linecap="round" stroke-linejoin="round"/>
</g>
<defs>
<clipPath id="clip0_240_6520">
<rect width="20" height="18" fill="white"/>
</clipPath>
</defs>
</svg>
