<svg width="22" height="20" viewBox="0 0 22 20" fill="none" xmlns="http://www.w3.org/2000/svg">
<path d="M5.633 9.5C6.439 9.5 7.166 9.054 7.664 8.42C8.44026 7.42962 9.41471 6.61218 10.525 6.02C11.248 5.636 11.875 5.064 12.178 4.305C12.3908 3.77325 12.5001 3.20575 12.5 2.633V2C12.5 1.80109 12.579 1.61032 12.7197 1.46967C12.8603 1.32902 13.0511 1.25 13.25 1.25C13.8467 1.25 14.419 1.48705 14.841 1.90901C15.263 2.33097 15.5 2.90326 15.5 3.5C15.5 4.652 15.24 5.743 14.777 6.718C14.511 7.276 14.884 8 15.502 8H18.628C19.654 8 20.573 8.694 20.682 9.715C20.727 10.137 20.75 10.565 20.75 11C20.7541 13.7363 19.8191 16.3912 18.101 18.521C17.713 19.003 17.114 19.25 16.496 19.25H12.48C11.997 19.25 11.516 19.172 11.057 19.02L7.943 17.98C7.48411 17.8274 7.00361 17.7497 6.52 17.75H4.904M13.25 8H15.5M4.904 17.75C4.987 17.955 5.077 18.155 5.174 18.352C5.371 18.752 5.096 19.25 4.651 19.25H3.743C2.854 19.25 2.03 18.732 1.771 17.882C1.42465 16.7452 1.24906 15.5633 1.25 14.375C1.25 12.822 1.545 11.339 2.081 9.977C2.387 9.203 3.167 8.75 4 8.75H5.053C5.525 8.75 5.798 9.306 5.553 9.71C4.69889 11.116 4.24843 12.7299 4.251 14.375C4.251 15.569 4.483 16.708 4.905 17.75H4.904Z" stroke="#131316" stroke-width="1.5" stroke-linecap="round" stroke-linejoin="round"/>
</svg>
