<svg width="20" height="20" viewBox="0 0 20 20" fill="none" xmlns="http://www.w3.org/2000/svg">
<path d="M7.22656 11.9415C7.22656 13.0165 8.05156 13.8832 9.07656 13.8832H11.1682C12.0599 13.8832 12.7849 13.1249 12.7849 12.1915C12.7849 11.1749 12.3432 10.8165 11.6849 10.5832L8.32656 9.41653C7.66823 9.1832 7.22656 8.82487 7.22656 7.8082C7.22656 6.87487 7.95156 6.11654 8.84323 6.11654H10.9349C11.9599 6.11654 12.7849 6.9832 12.7849 8.0582" stroke="#9C9CAB" stroke-width="1.5" stroke-linecap="round" stroke-linejoin="round"/>
<path d="M10 5V15" stroke="#9C9CAB" stroke-width="1.5" stroke-linecap="round" stroke-linejoin="round"/>
<path d="M12.4998 18.3333H7.49984C3.33317 18.3333 1.6665 16.6667 1.6665 12.5V7.5C1.6665 3.33333 3.33317 1.66667 7.49984 1.66667H12.4998C16.6665 1.66667 18.3332 3.33333 18.3332 7.5V12.5C18.3332 16.6667 16.6665 18.3333 12.4998 18.3333Z" stroke="#9C9CAB" stroke-width="1.5" stroke-linecap="round" stroke-linejoin="round"/>
</svg>
