<svg width="10" height="14" viewBox="0 0 10 14" fill="none" xmlns="http://www.w3.org/2000/svg">
<path d="M0.882643 3.679C0.88059 3.72744 0.888467 3.77579 0.90579 3.82107C0.923114 3.86636 0.949517 3.90762 0.983376 3.94232C1.01724 3.97703 1.05784 4.00444 1.10268 4.02287C1.14753 4.0413 1.19567 4.05036 1.24414 4.0495H2.48164C2.68864 4.0495 2.85364 3.88 2.88064 3.6745C3.01564 2.6905 3.69064 1.9735 4.89364 1.9735C5.92264 1.9735 6.86464 2.488 6.86464 3.7255C6.86464 4.678 6.30364 5.116 5.41714 5.782C4.40764 6.5155 3.60814 7.372 3.66514 8.7625L3.66964 9.088C3.67122 9.18641 3.71142 9.28026 3.78158 9.34929C3.85173 9.41833 3.94622 9.45701 4.04464 9.457H5.26114C5.3606 9.457 5.45598 9.41749 5.52631 9.34716C5.59663 9.27684 5.63614 9.18146 5.63614 9.082V8.9245C5.63614 7.8475 6.04564 7.534 7.15114 6.6955C8.06464 6.001 9.01714 5.23 9.01714 3.6115C9.01714 1.345 7.10314 0.25 5.00764 0.25C3.10714 0.25 1.02514 1.135 0.882643 3.679ZM3.21814 12.3235C3.21814 13.123 3.85564 13.714 4.73314 13.714C5.64664 13.714 6.27514 13.123 6.27514 12.3235C6.27514 11.4955 5.64514 10.9135 4.73164 10.9135C3.85564 10.9135 3.21814 11.4955 3.21814 12.3235Z" fill="#131316"/>
</svg>
