<svg width="20" height="20" viewBox="0 0 20 20" fill="none" xmlns="http://www.w3.org/2000/svg">
<g id="US - United States">
<g id="flag">
<mask id="mask0_175_3439" style="mask-type:luminance" maskUnits="userSpaceOnUse" x="-10" y="-2" width="32" height="24">
<rect id="mask" x="-10" y="-2" width="32" height="24" fill="white"/>
</mask>
<g mask="url(#mask0_175_3439)">
<g id="contents">
<path id="middle" fill-rule="evenodd" clip-rule="evenodd" d="M-7 0H19.6667V20H-7V0Z" fill="#F7FCFF"/>
<path id="Combined Shape" fill-rule="evenodd" clip-rule="evenodd" d="M-7 12.2222V13.8888H19.6667V12.2222H-7Z" fill="#E31D1C"/>
<path id="Combined Shape_2" fill-rule="evenodd" clip-rule="evenodd" d="M-7 15.2778V16.9445H19.6667V15.2778H-7Z" fill="#E31D1C"/>
<path id="Combined Shape_3" fill-rule="evenodd" clip-rule="evenodd" d="M-7 6.11108V7.77775H19.6667V6.11108H-7Z" fill="#E31D1C"/>
<path id="Combined Shape_4" fill-rule="evenodd" clip-rule="evenodd" d="M-7 18.3333V19.9999H19.6667V18.3333H-7Z" fill="#E31D1C"/>
<path id="Combined Shape_5" fill-rule="evenodd" clip-rule="evenodd" d="M-7 9.16675V10.8334H19.6667V9.16675H-7Z" fill="#E31D1C"/>
<path id="Combined Shape_6" fill-rule="evenodd" clip-rule="evenodd" d="M-7 0V1.66667H19.6667V0H-7Z" fill="#E31D1C"/>
<path id="Combined Shape_7" fill-rule="evenodd" clip-rule="evenodd" d="M-7 3.05566V4.72233H19.6667V3.05566H-7Z" fill="#E31D1C"/>
<rect id="Rectangle 82" x="-7" width="16.6667" height="10.8333" fill="#2E42A5"/>
<path id="Combined Shape_8" fill-rule="evenodd" clip-rule="evenodd" d="M-5.56499 2.44892L-6.16989 2.87299L-5.96567 2.11832L-6.50293 1.64006H-5.80119L-5.56583 1.02417L-5.28986 1.64006H-4.69164L-5.16167 2.11832L-4.97971 2.87299L-5.56499 2.44892ZM-2.23165 2.44892L-2.83655 2.87299L-2.63233 2.11832L-3.1696 1.64006H-2.46786L-2.2325 1.02417L-1.95652 1.64006H-1.35831L-1.82834 2.11832L-1.64637 2.87299L-2.23165 2.44892ZM0.49678 2.87299L1.10168 2.44892L1.68696 2.87299L1.50499 2.11832L1.97502 1.64006H1.37681L1.10083 1.02417L0.865476 1.64006H0.163737L0.701001 2.11832L0.49678 2.87299ZM4.43501 2.44892L3.83011 2.87299L4.03433 2.11832L3.49707 1.64006H4.19881L4.43417 1.02417L4.71014 1.64006H5.30836L4.83833 2.11832L5.02029 2.87299L4.43501 2.44892ZM-6.16989 6.20633L-5.56499 5.78225L-4.97971 6.20633L-5.16167 5.45165L-4.69164 4.97339H-5.28986L-5.56583 4.3575L-5.80119 4.97339H-6.50293L-5.96567 5.45165L-6.16989 6.20633ZM-2.23165 5.78225L-2.83655 6.20633L-2.63233 5.45165L-3.1696 4.97339H-2.46786L-2.2325 4.3575L-1.95652 4.97339H-1.35831L-1.82834 5.45165L-1.64637 6.20633L-2.23165 5.78225ZM0.49678 6.20633L1.10168 5.78225L1.68696 6.20633L1.50499 5.45165L1.97502 4.97339H1.37681L1.10083 4.3575L0.865476 4.97339H0.163737L0.701001 5.45165L0.49678 6.20633ZM4.43501 5.78225L3.83011 6.20633L4.03433 5.45165L3.49707 4.97339H4.19881L4.43417 4.3575L4.71014 4.97339H5.30836L4.83833 5.45165L5.02029 6.20633L4.43501 5.78225ZM-6.16989 9.53966L-5.56499 9.11559L-4.97971 9.53966L-5.16167 8.78499L-4.69164 8.30673H-5.28986L-5.56583 7.69084L-5.80119 8.30673H-6.50293L-5.96567 8.78499L-6.16989 9.53966ZM-2.23165 9.11559L-2.83655 9.53966L-2.63233 8.78499L-3.1696 8.30673H-2.46786L-2.2325 7.69084L-1.95652 8.30673H-1.35831L-1.82834 8.78499L-1.64637 9.53966L-2.23165 9.11559ZM0.49678 9.53966L1.10168 9.11559L1.68696 9.53966L1.50499 8.78499L1.97502 8.30673H1.37681L1.10083 7.69084L0.865476 8.30673H0.163737L0.701001 8.78499L0.49678 9.53966ZM4.43501 9.11559L3.83011 9.53966L4.03433 8.78499L3.49707 8.30673H4.19881L4.43417 7.69084L4.71014 8.30673H5.30836L4.83833 8.78499L5.02029 9.53966L4.43501 9.11559ZM7.16345 2.87299L7.76835 2.44892L8.35363 2.87299L8.17166 2.11832L8.64169 1.64006H8.04348L7.7675 1.02417L7.53214 1.64006H6.8304L7.36767 2.11832L7.16345 2.87299ZM7.76835 5.78225L7.16345 6.20633L7.36767 5.45165L6.8304 4.97339H7.53214L7.7675 4.3575L8.04348 4.97339H8.64169L8.17166 5.45165L8.35363 6.20633L7.76835 5.78225ZM7.16345 9.53966L7.76835 9.11559L8.35363 9.53966L8.17166 8.78499L8.64169 8.30673H8.04348L7.7675 7.69084L7.53214 8.30673H6.8304L7.36767 8.78499L7.16345 9.53966ZM-3.89832 4.11559L-4.50322 4.53966L-4.299 3.78499L-4.83626 3.30673H-4.13452L-3.89917 2.69084L-3.62319 3.30673H-3.02498L-3.49501 3.78499L-3.31304 4.53966L-3.89832 4.11559ZM-1.16989 4.53966L-0.564987 4.11559L0.0202947 4.53966L-0.161674 3.78499L0.308357 3.30673H-0.289856L-0.565833 2.69084L-0.80119 3.30673H-1.50293L-0.965666 3.78499L-1.16989 4.53966ZM2.76835 4.11559L2.16345 4.53966L2.36767 3.78499L1.8304 3.30673H2.53214L2.7675 2.69084L3.04348 3.30673H3.64169L3.17166 3.78499L3.35363 4.53966L2.76835 4.11559ZM-4.50322 7.87299L-3.89832 7.44892L-3.31304 7.87299L-3.49501 7.11832L-3.02498 6.64006H-3.62319L-3.89917 6.02417L-4.13452 6.64006H-4.83626L-4.299 7.11832L-4.50322 7.87299ZM-0.564987 7.44892L-1.16989 7.87299L-0.965666 7.11832L-1.50293 6.64006H-0.80119L-0.565833 6.02417L-0.289856 6.64006H0.308357L-0.161674 7.11832L0.0202947 7.87299L-0.564987 7.44892ZM2.16345 7.87299L2.76835 7.44892L3.35363 7.87299L3.17166 7.11832L3.64169 6.64006H3.04348L2.7675 6.02417L2.53214 6.64006H1.8304L2.36767 7.11832L2.16345 7.87299ZM6.10168 4.11559L5.49678 4.53966L5.701 3.78499L5.16374 3.30673H5.86548L6.10083 2.69084L6.37681 3.30673H6.97502L6.50499 3.78499L6.68696 4.53966L6.10168 4.11559ZM5.49678 7.87299L6.10168 7.44892L6.68696 7.87299L6.50499 7.11832L6.97502 6.64006H6.37681L6.10083 6.02417L5.86548 6.64006H5.16374L5.701 7.11832L5.49678 7.87299Z" fill="#F7FCFF"/>
</g>
</g>
</g>
</g>
</svg>
